<svg xmlns="http://www.w3.org/2000/svg" width="1244" height="369" viewBox="0 0 1244 369" version="1.1"><path d="M 44.667 40.667 C 44.300 41.033, 44 107.048, 44 187.367 C 44 278.318, 44.354 333.042, 44.938 332.450 C 45.454 331.927, 75.805 271.875, 112.385 199 L 178.893 66.500 189.946 66.217 C 196.026 66.062, 201 66.194, 201 66.511 C 201 66.828, 169.011 131.003, 129.914 209.124 C 90.816 287.244, 59.016 351.349, 59.246 351.579 C 59.811 352.145, 137.911 352.422, 138.472 351.861 C 138.715 351.618, 168.371 292.200, 204.373 219.821 C 240.375 147.442, 270.318 87.921, 270.913 87.554 C 271.776 87.021, 287 97.357, 287 98.476 C 287 98.640, 258.842 155.413, 224.427 224.637 C 190.011 293.862, 161.774 350.950, 161.677 351.500 C 161.416 352.973, 211.544 352.663, 221.763 351.128 C 261.963 345.090, 298.193 324.351, 322.509 293.461 C 342.200 268.445, 353.023 241.439, 356.102 209.640 C 358.233 187.634, 354.385 161.044, 346.010 139.892 C 341.721 129.061, 333.244 113, 331.817 113 C 331.364 113, 307.208 160.588, 278.137 218.750 L 225.281 324.500 217.890 325.768 C 213.826 326.465, 208.541 326.915, 206.147 326.768 L 201.794 326.500 259.960 210.102 L 318.127 93.705 313.813 89.222 C 301.130 76.041, 289.665 67.258, 274.500 59.105 C 268.450 55.853, 262.597 52.928, 261.493 52.606 C 259.696 52.081, 252.302 66.390, 190.744 189.510 L 122.001 327 111 327 C 104.950 327, 100 326.774, 100 326.499 C 100 326.223, 131.525 262.948, 170.056 185.888 C 208.587 108.828, 239.949 45.616, 239.750 45.416 C 239.550 45.217, 236.172 44.378, 232.242 43.551 C 220.314 41.042, 203.485 39.882, 183.588 40.199 L 164.676 40.500 117.588 133.315 L 70.500 226.130 70.231 203.941 L 69.961 181.752 85.356 151.626 C 123.328 77.320, 141 42.238, 141 41.162 C 141 40.295, 128.837 40, 93.167 40 C 66.858 40, 45.033 40.300, 44.667 40.667 M 70 94.500 C 70 110.175, 70.223 123, 70.497 123 C 70.988 123, 99 67.482, 99 66.507 C 99 66.228, 92.475 66, 84.500 66 L 70 66 70 94.500 M 544.286 106.391 C 529.091 111.356, 520 123.552, 520 138.973 C 520 152.556, 527.235 163.954, 539.500 169.693 C 544.599 172.078, 546.777 172.500, 554 172.500 C 561.252 172.500, 563.324 172.096, 568.109 169.745 C 574.930 166.396, 584.723 156.576, 583.142 154.671 C 582.569 153.980, 579.383 152.117, 576.062 150.529 L 570.023 147.643 566.461 151.206 C 559.866 157.800, 550.804 158.538, 543.287 153.093 C 532.370 145.185, 534.082 128.500, 546.384 122.913 C 553.532 119.667, 560.943 121.010, 566.490 126.557 L 569.943 130.010 576.471 126.790 C 580.369 124.868, 583 122.938, 583 122.001 C 583 119.459, 572.918 110.276, 567.500 107.883 C 561.314 105.152, 550.254 104.441, 544.286 106.391 M 632.314 106.797 C 616.604 112.409, 608.166 125.099, 609.220 141.525 C 610.027 154.095, 617.127 164.356, 628.804 169.830 C 633.577 172.067, 635.878 172.500, 643 172.500 C 653.208 172.500, 660.312 169.688, 667 163 C 673.692 156.308, 676.501 149.208, 676.495 139 C 676.488 128.787, 673.675 121.675, 667 115 C 658.263 106.263, 643.549 102.783, 632.314 106.797 M 383 139.078 L 383 172.156 401.750 171.828 C 419.502 171.517, 420.795 171.362, 426.046 168.899 C 433.918 165.207, 438.480 160.802, 442.146 153.355 C 444.864 147.835, 445.325 145.821, 445.276 139.690 C 445.181 127.923, 440.044 117.867, 431.101 111.944 C 423.584 106.965, 418.507 106, 399.818 106 L 383 106 383 139.078 M 474.972 114.458 C 474.957 119.156, 474.944 129.975, 474.944 138.500 C 474.944 147.025, 474.957 158.050, 474.972 163 L 475 172 483.014 172 L 491.027 172 490.764 139.250 L 490.500 106.500 482.750 106.208 L 475 105.916 474.972 114.458 M 705 138.960 L 705 172 713 172 L 721 172 721 155 C 721 145.650, 721.397 138, 721.882 138 C 722.368 138, 725.844 143.175, 729.608 149.500 C 738.676 164.740, 738.671 164.740, 748.203 148.794 L 755.500 136.588 755.773 154.294 L 756.046 172 764.023 172 L 772 172 772 138.960 L 772 105.919 763.893 106.210 L 755.785 106.500 747.643 120.207 C 743.164 127.745, 739.132 133.810, 738.683 133.684 C 738.233 133.558, 734.146 127.390, 729.600 119.978 L 721.334 106.500 713.167 106.210 L 705 105.919 705 138.960 M 399.472 124.298 C 399.132 126.113, 398.999 134.100, 399.177 142.048 L 399.500 156.500 406 156.818 C 413.755 157.198, 418.815 155.868, 422.991 152.354 C 427.173 148.835, 429 144.963, 429 139.615 C 429 127.624, 421.343 121.065, 407.295 121.022 L 400.091 121 399.472 124.298 M 637.145 122.070 C 623.174 127.666, 620.880 145.602, 633.102 153.684 C 642.165 159.677, 654.285 156.239, 659.090 146.313 C 661.749 140.821, 661.182 134.384, 657.555 128.904 C 653.408 122.637, 643.779 119.413, 637.145 122.070 M 294.731 243.533 C 276.179 280.642, 261 311.237, 261 311.522 C 261 312.485, 268.455 308.208, 276 302.916 C 280.125 300.022, 287.775 293.343, 293 288.073 C 311.022 269.896, 323.026 247.632, 328.623 222 C 330.724 212.378, 331.362 178.961, 329.481 177.081 C 328.789 176.389, 317.635 197.720, 294.731 243.533 M 576.300 224.801 C 566.702 228.230, 561.083 233.242, 555.897 243 C 553.858 246.837, 553.506 248.900, 553.508 257 C 553.509 265.452, 553.816 267.083, 556.289 271.784 C 559.995 278.830, 565.968 284.624, 572.852 287.852 C 577.573 290.065, 579.895 290.500, 587 290.500 C 594.067 290.500, 596.435 290.061, 601.046 287.899 C 608.685 284.316, 613.089 280.168, 617.092 272.785 C 620.289 266.889, 620.500 265.912, 620.500 257 C 620.500 248.088, 620.289 247.111, 617.092 241.215 C 615.217 237.758, 612.088 233.528, 610.138 231.816 C 601.264 224.025, 586.843 221.035, 576.300 224.801 M 401.664 224.735 C 401.388 225.181, 397.697 234.985, 393.461 246.523 C 389.226 258.060, 384.019 272.225, 381.892 278 C 379.765 283.775, 378.019 288.837, 378.012 289.250 C 378.006 289.663, 381.764 290, 386.364 290 L 394.728 290 396.505 285.250 C 399.241 277.932, 399.110 278, 410.500 278 C 421.876 278, 421.698 277.907, 424.411 285.250 L 426.165 290 434.650 290 C 442.989 290, 443.123 289.961, 442.438 287.750 C 442.055 286.512, 436.661 271.775, 430.453 255 L 419.164 224.500 410.664 224.212 C 405.989 224.054, 401.939 224.289, 401.664 224.735 M 470 256.960 L 470 290 478 290 L 486 290 486 272 C 486 262.100, 486.337 254.015, 486.750 254.033 C 487.163 254.051, 492.675 262.149, 499 272.029 L 510.500 289.994 517.250 289.997 L 524 290 524 257 L 524 224 516 224 L 508 224 508 240 C 508 248.800, 507.663 255.975, 507.250 255.944 C 506.837 255.913, 501.989 248.826, 496.475 240.194 L 486.449 224.500 478.225 224.210 L 470 223.919 470 256.960 M 650 257 L 650 290 658 290 L 666 290 666 272 C 666 262.100, 666.337 254.015, 666.750 254.032 C 667.163 254.050, 672.675 262.144, 679 272.020 L 690.500 289.975 697.250 289.987 L 704 290 704 257 L 704 224 696.024 224 L 688.048 224 687.774 240.592 L 687.500 257.183 678.078 242.342 C 672.895 234.179, 667.988 226.713, 667.173 225.750 C 665.993 224.358, 664.085 224, 657.845 224 L 650 224 650 257 M 733.596 227.212 C 734.523 229.020, 739.606 238.375, 744.891 248 L 754.500 265.500 755 277.500 L 755.500 289.500 763.750 289.790 L 772 290.081 772 278.778 L 772 267.474 783.122 247.001 C 789.239 235.740, 794.462 225.959, 794.729 225.264 C 795.098 224.303, 793.047 224, 786.174 224 L 777.134 224 771.014 235.474 C 767.648 241.784, 764.515 247.182, 764.053 247.467 C 763.590 247.753, 760.290 242.702, 756.718 236.244 L 750.224 224.500 741.066 224.212 L 731.909 223.924 733.596 227.212 M 823.667 224.667 C 823.300 225.033, 823 239.883, 823 257.667 L 823 290 831 290 L 839 290 839 273 C 839 263.650, 839.397 256, 839.882 256 C 840.368 256, 843.844 261.175, 847.608 267.500 C 856.676 282.740, 856.671 282.740, 866.203 266.794 L 873.500 254.588 873.773 272.294 L 874.046 290 882.023 290 L 890 290 890 257 L 890 224 882.046 224 L 874.092 224 865.796 237.972 C 861.233 245.657, 857.205 251.957, 856.845 251.972 C 856.485 251.987, 853.151 246.938, 849.437 240.750 C 838.561 222.631, 840.019 224, 831.599 224 C 827.603 224, 824.033 224.300, 823.667 224.667 M 924 257 L 924 290 932 290 L 940 290 940 257 L 940 224 932 224 L 924 224 924 257 M 971.415 225.362 C 971.127 226.111, 971.029 229.374, 971.196 232.612 L 971.500 238.500 983.250 238.782 C 989.717 238.937, 995 239.486, 995 240.003 C 995 240.520, 990.272 248.409, 984.494 257.533 C 970.967 278.893, 970.834 279.165, 971.197 284.802 L 971.500 289.500 994 289.500 L 1016.500 289.500 1016.500 282.500 L 1016.500 275.500 1004.750 275.218 C 997.944 275.055, 993 274.525, 993 273.958 C 993 273.419, 998.175 264.711, 1004.500 254.606 C 1015.911 236.376, 1016 236.187, 1016 230.117 L 1016 224 993.969 224 C 976.300 224, 971.834 224.270, 971.415 225.362 M 1046.454 225.259 C 1046.188 225.952, 1046.090 240.689, 1046.235 258.009 L 1046.500 289.500 1067.500 289.500 L 1088.500 289.500 1088.794 282.250 L 1089.088 275 1076.044 275 L 1063 275 1063 269.533 L 1063 264.066 1074.250 263.783 L 1085.500 263.500 1085.794 256.250 L 1086.088 249 1074.544 249 L 1063 249 1063 244 L 1063 239 1075.500 239 L 1088 239 1088 231.500 L 1088 224 1067.469 224 C 1051.886 224, 1046.821 224.304, 1046.454 225.259 M 1119 257 L 1119 290 1126.966 290 L 1134.932 290 1135.216 279.250 L 1135.500 268.500 1138.700 268.190 C 1142.271 267.845, 1143.069 268.826, 1150.534 282.750 L 1154.421 290 1163.210 290 C 1168.789 290, 1172 289.609, 1172 288.930 C 1172 288.341, 1169.300 282.973, 1166 277 C 1162.700 271.027, 1160 265.843, 1160 265.479 C 1160 265.116, 1161.562 262.993, 1163.470 260.763 C 1167.955 255.524, 1169.326 251.182, 1168.798 243.889 C 1168.228 236.006, 1164.458 230.499, 1157.064 226.750 C 1151.807 224.084, 1151.144 224, 1135.321 224 L 1119 224 1119 257 M 581.791 239.937 C 577.084 241.446, 573.245 244.863, 570.963 249.575 C 563.215 265.581, 581.966 281.568, 596.897 271.687 C 601.303 268.771, 605 262.070, 605 257 C 605 251.930, 601.303 245.229, 596.897 242.313 C 592.730 239.556, 586.190 238.527, 581.791 239.937 M 1135 246 L 1135 253 1142.326 253 C 1148.690 253, 1149.937 252.696, 1151.826 250.686 C 1154.674 247.653, 1154.578 244.487, 1151.545 241.455 C 1149.404 239.313, 1148.192 239, 1142.045 239 L 1135 239 1135 246 M 408.935 251.587 C 407.222 255.969, 405 262.202, 405 262.626 C 405 262.832, 407.475 263, 410.500 263 C 413.525 263, 416 262.815, 416 262.589 C 416 261.594, 411.587 250.410, 410.870 249.587 C 410.431 249.083, 409.564 249.979, 408.935 251.587" stroke="none" fill="#2f1d55" fill-rule="evenodd"/></svg>