<svg xmlns="http://www.w3.org/2000/svg" width="1213" height="363" viewBox="0 0 1213 363" version="1.1"><path d="M 35.667 24.667 C 34.741 25.593, 34.824 317, 35.750 316.999 C 36.163 316.998, 66.543 256.923, 103.262 183.499 L 170.024 50 181.012 50 C 187.055 50, 192 50.262, 192 50.582 C 192 50.903, 159.988 115.041, 120.863 193.112 C 81.738 271.183, 49.958 335.291, 50.241 335.574 C 50.633 335.966, 112.189 336.348, 127.064 336.051 C 129.460 336.003, 133.922 327.365, 195.536 203.500 C 231.786 130.625, 261.828 71, 262.297 71 C 263.198 71, 278 81.902, 278 82.565 C 278 82.779, 249.843 139.551, 215.430 208.727 C 181.016 277.902, 152.779 334.873, 152.680 335.328 C 152.423 336.508, 204.392 336.221, 213.039 334.994 C 294.181 323.486, 353.564 249.934, 347.008 169.057 C 345.467 150.038, 341.831 135.053, 334.501 117.500 C 331.442 110.176, 323.634 96.955, 322.576 97.308 C 322.003 97.499, 297.901 145.078, 269.017 203.039 C 219.622 302.158, 216.322 308.469, 213.500 309.216 C 209.454 310.287, 193 311.458, 193 310.675 C 193 310.332, 219.133 257.770, 251.073 193.871 L 309.146 77.691 301.323 69.789 C 297.020 65.443, 289.675 58.992, 285 55.455 C 277.198 49.551, 257.281 38.004, 252.482 36.602 C 250.670 36.073, 243.453 50.037, 181.735 173.506 L 113.006 311 102.003 311 C 95.951 311, 91 310.774, 91 310.499 C 91 310.223, 122.525 246.948, 161.056 169.888 C 199.587 92.828, 230.924 29.591, 230.695 29.362 C 230.466 29.132, 225.603 27.990, 219.889 26.824 C 210.921 24.994, 205.810 24.690, 182.518 24.602 L 155.535 24.500 152.005 31.500 C 133.632 67.935, 78.979 175.653, 71.081 191 L 61.044 210.500 61.022 188.123 L 61 165.747 76.639 135.123 C 85.240 118.281, 96.890 95.500, 102.527 84.500 C 122.027 46.448, 132 26.380, 132 25.192 C 132 24.286, 120.532 24, 84.167 24 C 57.858 24, 36.033 24.300, 35.667 24.667 M 61 78.500 C 61 94.175, 61.223 107, 61.497 107 C 61.988 107, 90 51.482, 90 50.507 C 90 50.228, 83.475 50, 75.500 50 L 61 50 61 78.500 M 534.844 90.334 C 521.597 95.283, 513.749 104.146, 511.056 117.198 C 507.204 135.865, 521.799 154.843, 541.416 156.674 C 549.689 157.447, 556.576 155.721, 563.749 151.078 C 568.698 147.874, 576.095 139.620, 574.899 138.636 C 574.679 138.456, 571.482 136.726, 567.792 134.792 L 561.085 131.276 558.447 134.236 C 554.697 138.445, 547.652 141.351, 542.781 140.697 C 537.128 139.939, 531.197 135.647, 528.943 130.684 C 522.097 115.603, 536.659 100.406, 551.690 106.946 C 554.335 108.097, 557.448 110.194, 558.606 111.605 L 560.711 114.171 567.878 110.561 C 574.432 107.261, 574.951 106.777, 573.947 104.900 C 571.764 100.822, 564.678 94.742, 559.168 92.219 C 552.366 89.105, 540.578 88.192, 534.844 90.334 M 624.286 90.391 C 609.146 95.338, 599.701 108.063, 599.827 123.345 C 599.938 136.801, 606.817 147.287, 620 154.096 C 623.707 156.010, 626.090 156.427, 633.518 156.460 C 641.736 156.496, 643.128 156.208, 649.226 153.208 C 656.490 149.634, 661.129 144.972, 665.040 137.315 C 667.148 133.190, 667.498 131.139, 667.484 123 C 667.472 115.134, 667.075 112.703, 665.178 108.864 C 659.318 97.006, 648.689 89.967, 635.720 89.355 C 631.369 89.149, 626.826 89.561, 624.286 90.391 M 374 123 L 374 156.156 392.750 155.828 C 410.873 155.511, 411.701 155.406, 417.497 152.692 C 427.314 148.096, 432.929 141.340, 435.601 130.913 C 439.502 115.684, 431.861 100.046, 417.148 93.148 C 411.774 90.628, 410.591 90.484, 392.750 90.172 L 374 89.844 374 123 M 465.454 91.259 C 465.188 91.952, 465.090 106.689, 465.235 124.009 L 465.500 155.500 473.750 155.790 L 482 156.081 482 123.040 L 482 90 473.969 90 C 468.435 90, 465.787 90.392, 465.454 91.259 M 696 123.040 L 696 156.081 704.250 155.790 L 712.500 155.500 712.500 139.349 C 712.500 130.465, 712.746 122.944, 713.046 122.635 C 713.347 122.326, 716.676 127.256, 720.445 133.589 C 729.508 148.819, 729.747 148.806, 739.401 132.541 L 746.500 120.581 746.773 138.291 L 747.046 156 755.023 156 L 763 156 763.049 146.750 C 763.092 138.552, 763.085 125.747, 763.020 98.210 L 763 89.919 754.801 90.210 L 746.602 90.500 738.889 103.363 C 734.646 110.437, 730.746 116.654, 730.222 117.178 C 729.618 117.782, 726.781 113.986, 722.477 106.815 C 711.488 88.510, 713.131 90, 703.932 90 L 696 90 696 123.040 M 391 123.103 L 391 141.205 399.324 140.853 C 406.387 140.553, 408.278 140.083, 411.800 137.752 C 416.914 134.366, 419.021 131.265, 419.713 126.101 C 421.458 113.095, 413.284 105.068, 398.250 105.022 L 391 105 391 123.103 M 626.404 107.392 C 617.326 111.619, 613.692 121.602, 617.996 130.491 C 623.398 141.651, 637.528 144.139, 646.209 135.458 C 655.373 126.294, 652.639 112.373, 640.603 106.907 C 635.194 104.451, 632.526 104.542, 626.404 107.392 M 285.547 227.054 C 267.096 263.933, 252 294.576, 252 295.149 C 252 296.761, 262.626 290.415, 271.500 283.503 C 301.445 260.179, 319.841 225.176, 321.730 187.929 C 322.325 176.202, 321.297 160, 319.958 160 C 319.483 160, 303.999 190.174, 285.547 227.054 M 567.314 208.806 C 556.507 212.647, 548.830 220.233, 545.360 230.500 C 540.485 244.923, 546.807 261.845, 560.035 269.778 C 567.321 274.147, 572.099 275.311, 580.555 274.774 C 592.856 273.992, 603.414 266.753, 609.193 255.136 C 611.115 251.274, 611.500 248.914, 611.500 241 C 611.500 232.468, 611.200 230.908, 608.557 225.692 C 601.081 210.937, 582.605 203.373, 567.314 208.806 M 392.597 208.843 C 391.681 210.324, 369 272.068, 369 273.079 C 369 273.586, 372.788 274, 377.417 274 L 385.835 274 387.589 269.250 C 388.555 266.637, 389.700 264.025, 390.134 263.444 C 390.607 262.810, 395.233 262.410, 401.697 262.444 L 412.472 262.500 414.667 268 L 416.862 273.500 425.431 273.789 C 430.144 273.948, 434 273.775, 434 273.405 C 434 272.583, 429.661 260.586, 418.664 231 L 410.300 208.500 401.732 208.212 C 397.020 208.054, 392.909 208.338, 392.597 208.843 M 461 241.040 L 461 274.081 469.250 273.790 L 477.500 273.500 478 256 L 478.500 238.500 489.913 256.250 L 501.326 274 508.163 274 L 515 274 515 241 L 515 208 507 208 L 499 208 498.885 217.250 C 498.822 222.338, 498.863 229.313, 498.976 232.750 C 499.094 236.334, 498.761 239, 498.195 239 C 497.652 239, 492.775 232.025, 487.356 223.500 L 477.503 208 469.252 208 L 461 208 461 241.040 M 641 241.040 L 641 274.081 649.250 273.790 L 657.500 273.500 658 255.862 L 658.500 238.224 669.880 256.112 L 681.260 274 688.130 274 L 695 274 695 241 L 695 208 687 208 L 679 208 679 224.059 C 679 233.193, 678.616 239.881, 678.110 239.568 C 677.620 239.265, 672.783 232.038, 667.361 223.509 L 657.503 208 649.252 208 L 641 208 641 241.040 M 723 208.337 C 723 208.564, 728.175 218.254, 734.500 229.871 L 746 250.992 746 262.496 L 746 274 754.500 274 L 763 274 763 262.818 L 763 251.636 774.500 230.394 C 780.825 218.710, 786 208.892, 786 208.576 C 786 208.259, 781.982 208, 777.072 208 L 768.144 208 761.979 219.250 C 758.588 225.438, 755.513 230.821, 755.144 231.213 C 754.776 231.605, 751.502 226.655, 747.869 220.213 L 741.264 208.500 732.132 208.212 C 727.109 208.054, 723 208.111, 723 208.337 M 814 240.960 L 814 274 822 274 L 830 274 830.100 265.750 C 830.155 261.212, 830.119 253.837, 830.019 249.359 C 829.918 244.812, 830.279 240.946, 830.836 240.601 C 831.385 240.262, 834.841 245.163, 838.517 251.492 C 847.351 266.705, 847.635 266.714, 856.481 252.031 C 860.116 245.998, 863.520 240.797, 864.045 240.472 C 864.637 240.106, 865 246.359, 865 256.941 L 865 274 873 274 L 881 274 881.049 265.750 C 881.093 258.386, 881.087 249.274, 881.020 217.210 L 881 207.919 872.810 208.210 L 864.621 208.500 856.560 221.894 C 852.127 229.261, 848.050 235.131, 847.500 234.939 C 846.950 234.747, 842.891 228.720, 838.481 221.545 L 830.461 208.500 822.231 208.210 L 814 207.919 814 240.960 M 915 241 L 915 274 923 274 L 931 274 931.041 266 C 931.063 261.600, 931.081 250.800, 931.081 242 C 931.081 233.200, 931.063 221.950, 931.041 217 L 931 208 923 208 L 915 208 915 241 M 962.667 208.667 C 962.300 209.033, 962 212.408, 962 216.167 L 962 223 974.107 223 C 985.125 223, 986.155 223.154, 985.557 224.712 C 985.196 225.654, 979.747 234.585, 973.450 244.558 C 962.338 262.156, 962 262.859, 962 268.346 L 962 274 985 274 L 1008 274 1008 266.500 L 1008 259 995.893 259 C 984.776 259, 983.840 258.857, 984.452 257.250 C 984.818 256.288, 990.041 247.588, 996.059 237.918 C 1006.897 220.500, 1007 220.277, 1007 214.168 L 1007 208 985.167 208 C 973.158 208, 963.033 208.300, 962.667 208.667 M 1037.667 208.667 C 1037.300 209.033, 1037 223.883, 1037 241.667 L 1037 274 1058.500 274 L 1080 274 1080 266.500 L 1080 259 1067 259 L 1054 259 1054 253.500 L 1054 248 1065.500 248 L 1077 248 1077 240.500 L 1077 233 1065.445 233 L 1053.890 233 1054.195 228.250 L 1054.500 223.500 1066.750 223.219 L 1079 222.938 1079 215.469 L 1079 208 1058.667 208 C 1047.483 208, 1038.033 208.300, 1037.667 208.667 M 1109.454 209.259 C 1109.188 209.952, 1109.090 224.689, 1109.235 242.009 L 1109.500 273.500 1117.750 273.790 L 1126 274.081 1126 263.509 C 1126 252.094, 1126.463 251.146, 1131.426 252.392 C 1133.229 252.845, 1135.336 255.685, 1139.665 263.500 L 1145.481 274 1154.809 274 L 1164.137 274 1158.871 264.250 C 1155.976 258.887, 1152.926 253.309, 1152.094 251.853 C 1150.643 249.313, 1150.727 249.045, 1154.170 245.234 C 1158.753 240.160, 1160.334 235.290, 1159.798 227.889 C 1159.228 220.006, 1155.458 214.499, 1148.064 210.750 C 1142.805 208.083, 1142.147 208, 1126.289 208 C 1114.066 208, 1109.815 208.318, 1109.454 209.259 M 572.153 224.311 C 557.056 230.013, 556.188 250.076, 570.750 256.743 C 576.957 259.585, 582.113 259.329, 587.653 255.905 C 595.073 251.319, 597.940 239.693, 593.492 232.227 C 589.297 225.187, 579.479 221.545, 572.153 224.311 M 1126 230 L 1126 237 1133.427 237 C 1140.260 237, 1141.021 236.789, 1142.927 234.365 C 1145.649 230.905, 1145.544 228.453, 1142.545 225.455 C 1140.404 223.313, 1139.192 223, 1133.045 223 L 1126 223 1126 230 M 400.465 234.500 C 397.548 241.964, 396 246.137, 396 246.537 C 396 246.792, 398.306 247, 401.125 247 L 406.250 247 405.639 243.946 C 405.303 242.266, 404.177 239.003, 403.138 236.696 C 401.486 233.030, 401.148 232.753, 400.465 234.500" stroke="none" fill="#43cea8" fill-rule="evenodd"/></svg>